#N canvas 127 29 503 458 10;
#X obj 274 -26 preset_hub k12 %hidden% %node% 2 6 7 %node% 2 7 7 %node%
2 8 7;
#X obj 45 147 cnv 15 466 99 empty empty empty 20 12 0 14 -233017 -66577
0;
#N canvas 916 254 450 514 META 0;
#X text 13 36 INLET_0 Connect a non-singal number here;
#X text 13 7 DESCRIPTION This object raises the right inlet number
to the power of the left inlet number;
#X text 12 62 INLET_1 Connect a non-signal number here. This will be
the exponent to the left inlet number;
#X text 11 88 OUTLET_0 This outputs the result of the exponentiation
;
#X restore 476 402 pd META;
#X obj 29 -4 cnv 3 501 3 empty empty empty 5 14 0 20 -260097 -191407
0;
#X obj 29 -32 cnv 15 501 28 empty empty Math/Exponentiate 5 14 0 20
-139274 -262144 0;
#X obj 500 -1 ggee/image @pd_extra/K12/icons/l2ork.png 0;
#X obj 48 23 K12/math_number;
#X obj 155 23 K12/math_number;
#X obj 48 275 K12/math_number;
#X obj 48 152 K12/math_exponentiate;
#X text 147 163 Math Exponentiate rases a base value to the power of
an exponent. The non-signal number connected to the left inlet (base)
will be raised to the power of the non-signal number connected to the
right inlet (exponent). The result of the exponentiation will be sent
out of the outlet.;
#X connect 6 0 9 0;
#X connect 7 0 9 1;
#X connect 9 0 8 0;
