#N canvas 512 50 460 600 10;
#X obj 162 159 ggee/image @pd_extra/K12/objects/math_scale.png 1;
#X obj 8 85 inlet;
#X obj 162 62 loadbang;
#X obj 118 162 nbx 4 14 -1e+37 1e+37 0 1 \$0-s-null \$0-r-null empty
0 -8 0 11 -262144 -1 -1 0 256 3;
#X obj 62 16 preset_node k12;
#X obj 63 39 preset_node k12;
#X obj 8 260 maxlib/scale 0 10000 0 10000;
#X obj 157 162 nbx 4 14 -1e+37 1e+37 0 1 \$0-s-null \$0-r-null empty
0 -8 0 11 -262144 -1 -1 100 256 3;
#X obj 118 187 nbx 4 14 -1e+37 1e+37 0 1 \$0-s-null \$0-r-null empty
0 -8 0 11 -262144 -1 -1 0 256 3;
#X obj 157 187 nbx 4 14 -1e+37 1e+37 0 1 \$0-s-null \$0-r-null empty
0 -8 0 11 -262144 -1 -1 10 256 3;
#X msg 162 85 open @pd_extra/K12/objects/math_scale.png;
#X obj 63 62 preset_node k12;
#X obj 64 85 preset_node k12;
#X obj 132 319 t b f;
#X obj 8 438 moses 0;
#X obj 55 371 + 1;
#X obj 55 393 gate 2 1;
#X obj 113 393 gate 2 1;
#X obj 47 480 moses 0;
#X msg 59 438 set \$1;
#X msg 86 503 10;
#X msg 147 438 set \$1;
#X obj 55 349 >;
#X msg 8 480 0;
#X obj 244 377 change;
#X obj 244 398 t b;
#X obj 199 419 gate 2 0;
#X obj 113 295 t f f 2;
#X obj 62 295 t f f 1;
#X text 124 149 input-range;
#X text 124 173 output-range;
#X obj 47 559 outlet;
#X obj 175 527 int;
#X obj 175 506 + 0.5;
#X obj 47 533 f;
#X obj 175 555 outlet;
#X connect 1 0 6 0;
#X connect 2 0 10 0;
#X connect 3 0 4 0;
#X connect 3 0 6 1;
#X connect 4 0 3 0;
#X connect 5 0 7 0;
#X connect 6 0 14 0;
#X connect 7 0 6 2;
#X connect 8 0 11 0;
#X connect 8 0 6 3;
#X connect 8 0 28 0;
#X connect 9 0 12 0;
#X connect 9 0 6 4;
#X connect 9 0 27 0;
#X connect 11 0 8 0;
#X connect 12 0 9 0;
#X connect 13 0 22 0;
#X connect 13 1 22 1;
#X connect 14 0 23 0;
#X connect 14 1 18 0;
#X connect 15 0 16 0;
#X connect 15 0 17 0;
#X connect 16 0 14 1;
#X connect 16 0 19 0;
#X connect 16 1 21 0;
#X connect 16 1 18 1;
#X connect 17 0 18 1;
#X connect 17 0 21 0;
#X connect 17 1 14 1;
#X connect 17 1 19 0;
#X connect 18 0 34 0;
#X connect 18 1 20 0;
#X connect 19 0 23 0;
#X connect 20 0 34 0;
#X connect 21 0 20 0;
#X connect 22 0 15 0;
#X connect 22 0 24 0;
#X connect 23 0 34 0;
#X connect 24 0 25 0;
#X connect 25 0 26 1;
#X connect 26 0 9 0;
#X connect 26 1 8 0;
#X connect 27 0 17 1;
#X connect 27 1 13 0;
#X connect 27 2 26 0;
#X connect 28 0 16 1;
#X connect 28 1 22 0;
#X connect 28 2 26 0;
#X connect 32 0 35 0;
#X connect 33 0 32 0;
#X connect 34 0 31 0;
#X connect 34 0 33 0;
#X coords 0 -1 1 1 89 89 2 117 127;
