#N canvas 192 57 1023 552 10;
#X floatatom 110 110 5 0 0 0 - - -, f 5;
#X floatatom 148 82 10 0 0 0 - - -, f 10;
#X obj -21 66 output~;
#X text 215 82 frequency;
#X text 144 108 confidence;
#N canvas 56 23 323 170 docs 0;
#X text -246 32 this is based on the LADSPA autotalent plugin;
#X text -245 66 please submit any changes to code or help patch: maxus@deterritorialized.com
;
#X text -244 118 appologies for the total mess;
#X restore 405 -236 pd docs;
#X text 354 -213 maxus germanus 2011 maxus.deterritorialized.com;
#X obj 32 -165 adc~;
#X obj 25 -244 osc~ 440;
#X obj 24 -195 *~ 1;
#X floatatom 44 -219 5 0 0 0 - - -, f 5;
#X obj 33 -112 *~ 2;
#X floatatom 56 -138 5 0 0 0 - - -, f 5;
#X obj 231 -187 mtof;
#X obj 231 -276 tgl 15 0 empty empty empty 17 7 0 10 -262144 -1 -1
0 1;
#X obj 231 -233 counter 2 0 12;
#X obj 231 -256 metro 100;
#X msg -30 -386 mix \$1;
#X floatatom -102 -405 5 0 1 0 - - -, f 5;
#X floatatom -30 -405 5 0 1 0 - - -, f 5;
#X floatatom 18 -405 5 -12 12 0 - - -, f 5;
#X msg 18 -386 shift \$1;
#X floatatom 78 -405 5 400 480 0 - - -, f 5;
#X msg 78 -386 tune \$1;
#X floatatom 132 -405 5 0 1 0 - - -, f 5;
#X msg 132 -386 smooth \$1;
#X floatatom 197 -405 5 0 1 0 - - -, f 5;
#X msg 197 -386 lfodepth \$1;
#X floatatom 273 -405 7 0 20000 0 - - -, f 7;
#X msg 273 -386 lforate \$1;
#X floatatom 344 -405 5 -1 1 0 - - -, f 5;
#X msg 344 -386 lfoshape \$1;
#X floatatom 422 -405 5 -1 1 0 - - -, f 5;
#X msg 422 -386 lfosym \$1;
#X floatatom 488 -405 5 -1 1 0 - - -, f 5;
#X msg 488 -386 warp \$1;
#X msg -102 -386 correct \$1;
#N canvas 413 164 450 300 scales 0;
#X text 348 91 lydian-dominant (jazzy);
#X text 355 114 harmonic minor;
#X text 351 138 chromatic blues;
#X text 379 159 whole-tones scale;
#X text 373 180 diminished scale;
#X text 397 202 pentatonic;
#X text 389 226 pentatonic blues;
#X text 344 71 middle-east-like minor;
#X msg 155 71 0 1 4 5 7 8 11 12 13 16 17 19;
#X text 336 50 major;
#X msg 150 50 0 2 4 5 7 9 11 12 14 16 17 19;
#X msg 163 93 0 2 4 6 7 9 10 12 14 16 18 19;
#X msg 171 117 0 2 3 5 7 8 11 12 14 15 17 19;
#X msg 180 138 0 2 3 4 5 6 7 9 10 11 12 14;
#X msg 195 182 0 2 3 5 6 8 9 11 12 14 15 17;
#X msg 204 205 0 2 4 7 9 12 14 16 19 21 24 26;
#X msg 210 227 0 2 3 4 7 8 9 12 14 15 16 19;
#X msg 187 160 0 0 2 2 4 4 6 6 8 8 10 10;
#X restore -241 -388 pd scales;
#X obj 443 -172 loadbang;
#X obj 443 -149 delay 1000;
#X msg 443 -126 \; pd dsp 1;
#X floatatom 617 -346 5 0 1 0 - - -, f 5;
#X msg 617 -326 pull \$1;
#X obj 231 -210 + 69;
#X msg -246 -288 0 -1 0 -1 -1 0 -1 0 -1 0 -1 -1;
#X msg -255 -123 0 1 0 1 1 0 1 0 1 0 1 1;
#X msg -255 -98 0 0 0 0 0 -1 0 0 0 0 0 0;
#X msg -255 -75 0 0 0 0 1 -1 0 0 0 0 0 0;
#X msg -255 -51 1 1 1 1 1 1 1 1 1 1 1 1;
#X msg 317 -90 1 -1 1 -1 1 1 -1 1 -1 1 -1 1;
#X obj 129 -164 mtof;
#X obj 129 -276 tgl 15 0 empty empty empty 17 7 0 10 -262144 -1 -1
1 1;
#X obj 129 -187 + 69;
#X obj 129 -233 counter 2 0 120;
#X obj 129 -210 / 10;
#X obj 129 -256 metro 25;
#X text -241 -355 -1 = removes pitch from the scale 0 = includes pitch
and allows off-tune notes except when surrounded by removed (-1) notes
1 = snaps any nearby pitch to note, f 91;
#X text -52 -288 pentatonic scale;
#X text 498 -91 major scale with snapping notes;
#X obj 83 13 autotune~;
#X floatatom 544 -405 5 -5 5 0 - - -, f 5;
#X msg 544 -386 scwarp \$1;
#X floatatom 673 -346 5 -36 12 0 - - -, f 5;
#X msg 673 -326 pullpitch \$1;
#X connect 7 0 11 0;
#X connect 7 1 11 0;
#X connect 8 0 9 0;
#X connect 9 0 59 0;
#X connect 10 0 9 1;
#X connect 12 0 11 1;
#X connect 13 0 8 0;
#X connect 14 0 16 0;
#X connect 15 0 43 0;
#X connect 16 0 15 0;
#X connect 17 0 59 0;
#X connect 18 0 36 0;
#X connect 19 0 17 0;
#X connect 20 0 21 0;
#X connect 21 0 59 0;
#X connect 22 0 23 0;
#X connect 23 0 59 0;
#X connect 24 0 25 0;
#X connect 25 0 59 0;
#X connect 26 0 27 0;
#X connect 27 0 59 0;
#X connect 28 0 29 0;
#X connect 29 0 59 0;
#X connect 30 0 31 0;
#X connect 31 0 59 0;
#X connect 32 0 33 0;
#X connect 33 0 59 0;
#X connect 34 0 35 0;
#X connect 35 0 59 0;
#X connect 36 0 59 0;
#X connect 38 0 39 0;
#X connect 38 0 49 0;
#X connect 38 0 51 0;
#X connect 39 0 40 0;
#X connect 41 0 42 0;
#X connect 42 0 59 0;
#X connect 43 0 13 0;
#X connect 44 0 59 0;
#X connect 45 0 59 0;
#X connect 46 0 59 0;
#X connect 47 0 59 0;
#X connect 48 0 59 0;
#X connect 49 0 59 0;
#X connect 50 0 8 0;
#X connect 51 0 55 0;
#X connect 52 0 50 0;
#X connect 53 0 54 0;
#X connect 54 0 52 0;
#X connect 55 0 53 0;
#X connect 59 0 2 1;
#X connect 59 0 2 0;
#X connect 59 1 0 0;
#X connect 59 2 1 0;
#X connect 60 0 61 0;
#X connect 61 0 59 0;
#X connect 62 0 63 0;
#X connect 63 0 59 0;
